<?xml version="1.0" encoding="UTF-8"?><svg xmlns="http://www.w3.org/2000/svg" xmlns:xlink="http://www.w3.org/1999/xlink" fill-opacity="1" color-rendering="auto" color-interpolation="auto" text-rendering="auto" stroke="black" stroke-linecap="square" width="828" stroke-miterlimit="10" shape-rendering="auto" stroke-opacity="1" fill="black" stroke-dasharray="none" font-weight="normal" stroke-width="1" height="259" font-family="'Dialog'" font-style="normal" stroke-linejoin="miter" font-size="12px" stroke-dashoffset="0" image-rendering="auto">
  <!--Generated by ySVG 2.5-->
  <defs id="genericDefs"/>
  <g>
    <defs id="defs1">
      <clipPath clipPathUnits="userSpaceOnUse" id="clipPath1">
        <path d="M0 0 L828 0 L828 259 L0 259 L0 0 Z"/>
      </clipPath>
      <clipPath clipPathUnits="userSpaceOnUse" id="clipPath2">
        <path d="M415 8 L1243 8 L1243 267 L415 267 L415 8 Z"/>
      </clipPath>
    </defs>
    <g fill="white" text-rendering="geometricPrecision" shape-rendering="geometricPrecision" transform="translate(-415,-8)" stroke="white">
      <rect x="415" width="828" height="259" y="8" clip-path="url(#clipPath2)" stroke="none"/>
    </g>
    <g fill="white" text-rendering="geometricPrecision" shape-rendering="geometricPrecision" transform="matrix(1,0,0,1,-415,-8)" stroke="white">
      <circle r="7.5" clip-path="url(#clipPath2)" cx="450.588" cy="145.6179" stroke="none"/>
    </g>
    <g text-rendering="geometricPrecision" stroke-miterlimit="1.45" stroke-width="2" shape-rendering="geometricPrecision" transform="matrix(1,0,0,1,-415,-8)" stroke-linecap="butt">
      <circle fill="none" r="7.5" clip-path="url(#clipPath2)" cx="450.588" cy="145.6179"/>
      <text x="422.7052" font-size="16px" y="128.7429" clip-path="url(#clipPath2)" font-family="sans-serif" stroke="none" stroke-width="1" xml:space="preserve">value 1</text>
    </g>
    <g fill="white" text-rendering="geometricPrecision" shape-rendering="geometricPrecision" transform="matrix(1,0,0,1,-415,-8)" stroke="white">
      <circle r="7.5" clip-path="url(#clipPath2)" cx="527.088" cy="145.6179" stroke="none"/>
    </g>
    <g text-rendering="geometricPrecision" stroke-miterlimit="1.45" stroke-width="2" shape-rendering="geometricPrecision" transform="matrix(1,0,0,1,-415,-8)" stroke-linecap="butt">
      <circle fill="none" r="7.5" clip-path="url(#clipPath2)" cx="527.088" cy="145.6179"/>
      <text x="499.2052" font-size="16px" y="128.7429" clip-path="url(#clipPath2)" font-family="sans-serif" stroke="none" stroke-width="1" xml:space="preserve">value 2</text>
    </g>
    <g fill="white" text-rendering="geometricPrecision" shape-rendering="geometricPrecision" transform="matrix(1,0,0,1,-415,-8)" stroke="white">
      <circle r="7.5" clip-path="url(#clipPath2)" cx="603.588" cy="145.6179" stroke="none"/>
    </g>
    <g text-rendering="geometricPrecision" stroke-miterlimit="1.45" stroke-width="2" shape-rendering="geometricPrecision" transform="matrix(1,0,0,1,-415,-8)" stroke-linecap="butt">
      <circle fill="none" r="7.5" clip-path="url(#clipPath2)" cx="603.588" cy="145.6179"/>
      <text x="575.7052" font-size="16px" y="128.7429" clip-path="url(#clipPath2)" font-family="sans-serif" stroke="none" stroke-width="1" xml:space="preserve">value 3</text>
      <ellipse rx="22.5898" fill="none" ry="7.5" clip-path="url(#clipPath2)" cx="488.838" cy="198.1179"/>
      <text x="429.0685" font-size="16px" y="204.1648" clip-path="url(#clipPath2)" font-family="sans-serif" stroke="none" stroke-width="1" xml:space="preserve">Add</text>
      <ellipse clip-path="url(#clipPath2)" fill="none" rx="22.5898" cx="565.338" ry="7.5" cy="198.1179" stroke="rgb(255,153,0)"/>
      <text x="593.9279" font-size="16px" y="204.1648" clip-path="url(#clipPath2)" font-family="sans-serif" stroke="none" stroke-width="1" xml:space="preserve">Mul</text>
      <ellipse rx="22.5898" fill="none" ry="7.5" clip-path="url(#clipPath2)" cx="527.088" cy="250.1179"/>
      <text x="555.6779" font-size="16px" y="256.1648" clip-path="url(#clipPath2)" font-family="sans-serif" stroke="none" stroke-width="1" xml:space="preserve">Sub</text>
    </g>
    <g fill="white" text-rendering="geometricPrecision" shape-rendering="geometricPrecision" transform="matrix(1,0,0,1,-415,-8)" stroke="white">
      <circle r="7.5" clip-path="url(#clipPath2)" cx="1054.2139" cy="145.6179" stroke="none"/>
    </g>
    <g text-rendering="geometricPrecision" stroke-miterlimit="1.45" stroke-width="2" shape-rendering="geometricPrecision" transform="matrix(1,0,0,1,-415,-8)" stroke-linecap="butt">
      <circle fill="none" r="7.5" clip-path="url(#clipPath2)" cx="1054.2139" cy="145.6179"/>
      <text x="1026.3311" font-size="16px" y="128.7429" clip-path="url(#clipPath2)" font-family="sans-serif" stroke="none" stroke-width="1" xml:space="preserve">value 1</text>
    </g>
    <g fill="white" text-rendering="geometricPrecision" shape-rendering="geometricPrecision" transform="matrix(1,0,0,1,-415,-8)" stroke="white">
      <circle r="7.5" clip-path="url(#clipPath2)" cx="1130.7139" cy="145.6179" stroke="none"/>
    </g>
    <g text-rendering="geometricPrecision" stroke-miterlimit="1.45" stroke-width="2" shape-rendering="geometricPrecision" transform="matrix(1,0,0,1,-415,-8)" stroke-linecap="butt">
      <circle fill="none" r="7.5" clip-path="url(#clipPath2)" cx="1130.7139" cy="145.6179"/>
      <text x="1102.8311" font-size="16px" y="128.7429" clip-path="url(#clipPath2)" font-family="sans-serif" stroke="none" stroke-width="1" xml:space="preserve">value 2</text>
    </g>
    <g fill="white" text-rendering="geometricPrecision" shape-rendering="geometricPrecision" transform="matrix(1,0,0,1,-415,-8)" stroke="white">
      <circle r="7.5" clip-path="url(#clipPath2)" cx="1207.2139" cy="145.6179" stroke="none"/>
    </g>
    <g text-rendering="geometricPrecision" stroke-miterlimit="1.45" stroke-width="2" shape-rendering="geometricPrecision" transform="matrix(1,0,0,1,-415,-8)" stroke-linecap="butt">
      <circle fill="none" r="7.5" clip-path="url(#clipPath2)" cx="1207.2139" cy="145.6179"/>
      <text x="1179.3311" font-size="16px" y="128.7429" clip-path="url(#clipPath2)" font-family="sans-serif" stroke="none" stroke-width="1" xml:space="preserve">value 3</text>
      <ellipse clip-path="url(#clipPath2)" fill="none" rx="22.5898" cx="1168.9639" ry="7.5" cy="198.1179" stroke="rgb(255,153,0)"/>
      <text x="1197.5537" font-size="16px" y="204.1648" clip-path="url(#clipPath2)" font-family="sans-serif" stroke="none" stroke-width="1" xml:space="preserve">Mul</text>
    </g>
    <g font-size="16px" stroke-linecap="butt" transform="matrix(1,0,0,1,-415,-8)" text-rendering="geometricPrecision" font-family="sans-serif" shape-rendering="geometricPrecision" font-weight="bold" stroke-miterlimit="1.45">
      <text x="467.0177" xml:space="preserve" y="79.6648" clip-path="url(#clipPath2)" stroke="none">Original graph</text>
      <text x="1071.1592" xml:space="preserve" y="92.1648" clip-path="url(#clipPath2)" stroke="none">Injected graph</text>
      <text x="766.2083" xml:space="preserve" font-size="25px" y="39.937" clip-path="url(#clipPath2)" stroke="none">First step</text>
    </g>
    <g text-rendering="geometricPrecision" stroke-miterlimit="1.45" stroke-width="2" shape-rendering="geometricPrecision" transform="matrix(1,0,0,1,-415,-8)" stroke-linecap="butt">
      <path fill="none" d="M455.0045 151.6797 L476.2398 180.8262" clip-path="url(#clipPath2)"/>
      <path d="M483.5269 190.8281 L481.033 175.9422 L470.1217 183.8917 Z" clip-path="url(#clipPath2)" stroke="none"/>
      <path fill="none" d="M522.6716 151.6797 L501.4363 180.8262" clip-path="url(#clipPath2)"/>
      <path d="M494.1491 190.8281 L507.5543 183.8917 L496.6431 175.9421 Z" clip-path="url(#clipPath2)" stroke="none"/>
      <path fill="none" d="M599.1716 151.6797 L577.9363 180.8262" clip-path="url(#clipPath2)"/>
      <path d="M570.6492 190.8281 L584.0543 183.8917 L573.1431 175.9422 Z" clip-path="url(#clipPath2)" stroke="none"/>
      <path fill="none" d="M531.5045 151.6797 L552.7398 180.8262" clip-path="url(#clipPath2)"/>
      <path d="M560.0269 190.8281 L557.533 175.9422 L546.6218 183.8917 Z" clip-path="url(#clipPath2)" stroke="none"/>
      <path fill="none" d="M494.1974 205.4038 L514.3961 232.8634" clip-path="url(#clipPath2)"/>
      <path d="M521.7287 242.832 L519.1669 227.9576 L508.292 235.9568 Z" clip-path="url(#clipPath2)" stroke="none"/>
      <path fill="none" d="M559.9787 205.4038 L539.78 232.8634" clip-path="url(#clipPath2)"/>
      <path d="M532.4474 242.832 L545.884 235.9568 L535.0092 227.9576 Z" clip-path="url(#clipPath2)" stroke="none"/>
      <path fill="none" d="M1202.7975 151.6797 L1181.5621 180.8262" clip-path="url(#clipPath2)"/>
      <path d="M1174.275 190.8281 L1187.6802 183.8917 L1176.769 175.9422 Z" clip-path="url(#clipPath2)" stroke="none"/>
      <path fill="none" d="M1135.1302 151.6797 L1156.3656 180.8262" clip-path="url(#clipPath2)"/>
      <path d="M1163.6527 190.8281 L1161.1587 175.9422 L1150.2476 183.8917 Z" clip-path="url(#clipPath2)" stroke="none"/>
      <path fill="none" d="M581.5118 192.8981 L603.0646 185.9422 L640.7913 175.3899 L678.5179 166.4611 L716.2445 159.1557 L753.9711 153.4737 L791.6977 149.4151 L829.4243 146.98 L867.1509 146.1683 L904.8776 146.98 L942.6042 149.4151 L980.3308 153.4737 L1018.0574 159.1557 L1055.7841 166.4611 L1093.5106 175.3899 L1131.2373 185.9422 L1138.3961 188.2526" stroke-width="4" clip-path="url(#clipPath2)" stroke="rgb(255,153,0)"/>
      <path fill="rgb(255,153,0)" d="M1152.79 192.8981 L1139.6215 179.979 L1134.5537 195.6815 Z" stroke-width="4" clip-path="url(#clipPath2)" stroke="none"/>
      <text x="774.4444" font-size="16px" y="117.7053" clip-path="url(#clipPath2)" font-family="sans-serif" stroke="none" stroke-width="1" xml:space="preserve">Add operation</text>
      <text x="796.7296" font-size="16px" y="136.5491" clip-path="url(#clipPath2)" font-family="sans-serif" stroke="none" stroke-width="1" xml:space="preserve">to graph</text>
    </g>
  </g>
</svg>
