<?xml version="1.0" encoding="UTF-8"?><svg xmlns="http://www.w3.org/2000/svg" xmlns:xlink="http://www.w3.org/1999/xlink" fill-opacity="1" color-rendering="auto" color-interpolation="auto" text-rendering="auto" stroke="black" stroke-linecap="square" width="828" stroke-miterlimit="10" shape-rendering="auto" stroke-opacity="1" fill="black" stroke-dasharray="none" font-weight="normal" stroke-width="1" height="306" font-family="'Dialog'" font-style="normal" stroke-linejoin="miter" font-size="12px" stroke-dashoffset="0" image-rendering="auto">
  <!--Generated by ySVG 2.5-->
  <defs id="genericDefs"/>
  <g>
    <defs id="defs1">
      <clipPath clipPathUnits="userSpaceOnUse" id="clipPath1">
        <path d="M0 0 L828 0 L828 306 L0 306 L0 0 Z"/>
      </clipPath>
      <clipPath clipPathUnits="userSpaceOnUse" id="clipPath2">
        <path d="M415 312 L1243 312 L1243 618 L415 618 L415 312 Z"/>
      </clipPath>
    </defs>
    <g fill="white" text-rendering="geometricPrecision" shape-rendering="geometricPrecision" transform="translate(-415,-312)" stroke="white">
      <rect x="415" width="828" height="306" y="312" clip-path="url(#clipPath2)" stroke="none"/>
    </g>
    <g text-rendering="geometricPrecision" stroke-miterlimit="1.45" shape-rendering="geometricPrecision" transform="matrix(1,0,0,1,-415,-312)" stroke-linecap="butt">
      <rect fill="none" x="724.0807" width="209.6797" height="165.6297" y="436.4455" clip-path="url(#clipPath2)"/>
      <text x="765.5494" font-size="16px" y="457.9143" clip-path="url(#clipPath2)" font-family="sans-serif" stroke="none" xml:space="preserve">lambda function</text>
      <text x="756.5807" font-size="16px" y="476.758" clip-path="url(#clipPath2)" font-family="sans-serif" stroke="none" xml:space="preserve">( __injectedAdd( ) )</text>
      <rect fill="none" x="753.3463" width="151.1484" height="95.637" y="487.9715" clip-path="url(#clipPath2)"/>
      <text x="783.151" font-size="16px" y="509.4402" clip-path="url(#clipPath2)" font-family="sans-serif" stroke="none" xml:space="preserve">conditional </text>
      <text x="780.2877" font-size="16px" y="528.284" clip-path="url(#clipPath2)" font-family="sans-serif" stroke="none" xml:space="preserve">perturbation</text>
      <rect fill="none" x="768.2194" width="121.4023" height="35" y="538.6084" clip-path="url(#clipPath2)"/>
      <text x="775.2194" font-size="18px" y="562.9111" clip-path="url(#clipPath2)" font-family="sans-serif" stroke="none" xml:space="preserve">tf.add( a, b )</text>
    </g>
    <g fill="silver" text-rendering="geometricPrecision" shape-rendering="geometricPrecision" transform="matrix(1,0,0,1,-415,-312)" stroke="silver">
      <rect x="768.2194" width="121.4023" height="35" y="538.6084" clip-path="url(#clipPath2)" stroke="none"/>
      <rect x="768.2194" y="538.6084" clip-path="url(#clipPath2)" fill="white" width="1" height="35" stroke="none"/>
      <rect x="769.2194" y="538.6084" clip-path="url(#clipPath2)" fill="white" width="119.4023" height="1" stroke="none"/>
      <rect x="769.2194" y="572.6084" clip-path="url(#clipPath2)" fill="rgb(134,134,134)" width="120.4023" height="1" stroke="none"/>
      <rect x="888.6217" y="538.6084" clip-path="url(#clipPath2)" fill="rgb(134,134,134)" width="1" height="34" stroke="none"/>
    </g>
    <g font-size="18px" stroke-linecap="butt" transform="matrix(1,0,0,1,-415,-312)" text-rendering="geometricPrecision" font-family="sans-serif" shape-rendering="geometricPrecision" stroke-miterlimit="1.45">
      <text x="775.2194" xml:space="preserve" y="562.9111" clip-path="url(#clipPath2)" stroke="none">tf.add( a, b )</text>
      <rect x="708.2457" y="425.7604" clip-path="url(#clipPath2)" fill="none" width="241.3496" rx="4" ry="4" height="187" stroke-width="2"/>
      <text x="759.6583" xml:space="preserve" y="415.9635" clip-path="url(#clipPath2)" stroke="none">tf.py_function( )</text>
    </g>
    <g fill="white" text-rendering="geometricPrecision" shape-rendering="geometricPrecision" transform="matrix(1,0,0,1,-415,-312)" stroke="white">
      <circle r="7.5" clip-path="url(#clipPath2)" cx="450.588" cy="474.652" stroke="none"/>
    </g>
    <g text-rendering="geometricPrecision" stroke-miterlimit="1.45" stroke-width="2" shape-rendering="geometricPrecision" transform="matrix(1,0,0,1,-415,-312)" stroke-linecap="butt">
      <circle fill="none" r="7.5" clip-path="url(#clipPath2)" cx="450.588" cy="474.652"/>
      <text x="422.7052" font-size="16px" y="457.777" clip-path="url(#clipPath2)" font-family="sans-serif" stroke="none" stroke-width="1" xml:space="preserve">value 1</text>
    </g>
    <g fill="white" text-rendering="geometricPrecision" shape-rendering="geometricPrecision" transform="matrix(1,0,0,1,-415,-312)" stroke="white">
      <circle r="7.5" clip-path="url(#clipPath2)" cx="527.088" cy="474.652" stroke="none"/>
    </g>
    <g text-rendering="geometricPrecision" stroke-miterlimit="1.45" stroke-width="2" shape-rendering="geometricPrecision" transform="matrix(1,0,0,1,-415,-312)" stroke-linecap="butt">
      <circle fill="none" r="7.5" clip-path="url(#clipPath2)" cx="527.088" cy="474.652"/>
      <text x="499.2052" font-size="16px" y="457.777" clip-path="url(#clipPath2)" font-family="sans-serif" stroke="none" stroke-width="1" xml:space="preserve">value 2</text>
    </g>
    <g fill="white" text-rendering="geometricPrecision" shape-rendering="geometricPrecision" transform="matrix(1,0,0,1,-415,-312)" stroke="white">
      <circle r="7.5" clip-path="url(#clipPath2)" cx="603.588" cy="474.652" stroke="none"/>
    </g>
    <g text-rendering="geometricPrecision" stroke-miterlimit="1.45" stroke-width="2" shape-rendering="geometricPrecision" transform="matrix(1,0,0,1,-415,-312)" stroke-linecap="butt">
      <circle fill="none" r="7.5" clip-path="url(#clipPath2)" cx="603.588" cy="474.652"/>
      <text x="575.7052" font-size="16px" y="457.777" clip-path="url(#clipPath2)" font-family="sans-serif" stroke="none" stroke-width="1" xml:space="preserve">value 3</text>
      <ellipse clip-path="url(#clipPath2)" fill="none" rx="22.5898" cx="488.838" ry="7.5" cy="527.152" stroke="rgb(255,153,0)"/>
      <text x="429.0685" font-size="16px" y="533.1989" clip-path="url(#clipPath2)" font-family="sans-serif" stroke="none" stroke-width="1" xml:space="preserve">Add</text>
      <ellipse rx="22.5898" fill="none" ry="7.5" clip-path="url(#clipPath2)" cx="565.338" cy="527.152"/>
      <text x="593.9279" font-size="16px" y="533.1989" clip-path="url(#clipPath2)" font-family="sans-serif" stroke="none" stroke-width="1" xml:space="preserve">Mul</text>
      <ellipse rx="22.5898" fill="none" ry="7.5" clip-path="url(#clipPath2)" cx="527.088" cy="579.152"/>
      <text x="555.6779" font-size="16px" y="585.1989" clip-path="url(#clipPath2)" font-family="sans-serif" stroke="none" stroke-width="1" xml:space="preserve">Sub</text>
    </g>
    <g fill="white" text-rendering="geometricPrecision" shape-rendering="geometricPrecision" transform="matrix(1,0,0,1,-415,-312)" stroke="white">
      <circle r="7.5" clip-path="url(#clipPath2)" cx="1054.253" cy="474.1696" stroke="none"/>
    </g>
    <g text-rendering="geometricPrecision" stroke-miterlimit="1.45" stroke-width="2" shape-rendering="geometricPrecision" transform="matrix(1,0,0,1,-415,-312)" stroke-linecap="butt">
      <circle fill="none" r="7.5" clip-path="url(#clipPath2)" cx="1054.253" cy="474.1696"/>
      <text x="1026.3702" font-size="16px" y="457.2946" clip-path="url(#clipPath2)" font-family="sans-serif" stroke="none" stroke-width="1" xml:space="preserve">value 1</text>
    </g>
    <g fill="white" text-rendering="geometricPrecision" shape-rendering="geometricPrecision" transform="matrix(1,0,0,1,-415,-312)" stroke="white">
      <circle r="7.5" clip-path="url(#clipPath2)" cx="1130.753" cy="474.1696" stroke="none"/>
    </g>
    <g text-rendering="geometricPrecision" stroke-miterlimit="1.45" stroke-width="2" shape-rendering="geometricPrecision" transform="matrix(1,0,0,1,-415,-312)" stroke-linecap="butt">
      <circle fill="none" r="7.5" clip-path="url(#clipPath2)" cx="1130.753" cy="474.1696"/>
      <text x="1102.8702" font-size="16px" y="457.2946" clip-path="url(#clipPath2)" font-family="sans-serif" stroke="none" stroke-width="1" xml:space="preserve">value 2</text>
    </g>
    <g fill="white" text-rendering="geometricPrecision" shape-rendering="geometricPrecision" transform="matrix(1,0,0,1,-415,-312)" stroke="white">
      <circle r="7.5" clip-path="url(#clipPath2)" cx="1207.253" cy="474.1696" stroke="none"/>
    </g>
    <g text-rendering="geometricPrecision" stroke-miterlimit="1.45" stroke-width="2" shape-rendering="geometricPrecision" transform="matrix(1,0,0,1,-415,-312)" stroke-linecap="butt">
      <circle fill="none" r="7.5" clip-path="url(#clipPath2)" cx="1207.253" cy="474.1696"/>
      <text x="1179.3702" font-size="16px" y="457.2946" clip-path="url(#clipPath2)" font-family="sans-serif" stroke="none" stroke-width="1" xml:space="preserve">value 3</text>
      <ellipse clip-path="url(#clipPath2)" fill="none" rx="22.5898" cx="1092.503" ry="7.5" cy="526.6696" stroke="rgb(255,153,0)"/>
      <text x="963.2335" font-size="16px" y="532.7165" clip-path="url(#clipPath2)" font-family="sans-serif" stroke="none" stroke-width="1" xml:space="preserve">injected_Add</text>
      <ellipse rx="22.5898" fill="none" ry="7.5" clip-path="url(#clipPath2)" cx="1169.003" cy="526.6696"/>
      <text x="1197.5929" font-size="16px" y="532.7165" clip-path="url(#clipPath2)" font-family="sans-serif" stroke="none" stroke-width="1" xml:space="preserve">Mul</text>
    </g>
    <g font-size="16px" stroke-linecap="butt" transform="matrix(1,0,0,1,-415,-312)" text-rendering="geometricPrecision" font-family="sans-serif" shape-rendering="geometricPrecision" font-weight="bold" stroke-miterlimit="1.45">
      <text x="467.0177" xml:space="preserve" y="408.6989" clip-path="url(#clipPath2)" stroke="none">Original graph</text>
      <text x="1071.1984" xml:space="preserve" y="408.6989" clip-path="url(#clipPath2)" stroke="none">Injected graph</text>
      <text x="749.6935" xml:space="preserve" font-size="25px" y="343.3035" clip-path="url(#clipPath2)" stroke="none">Second step</text>
    </g>
    <g text-rendering="geometricPrecision" stroke-miterlimit="1.45" stroke-width="2" shape-rendering="geometricPrecision" transform="matrix(1,0,0,1,-415,-312)" stroke-linecap="butt">
      <path fill="none" d="M455.0045 480.7137 L476.2398 509.8603" clip-path="url(#clipPath2)"/>
      <path d="M483.5269 519.8622 L481.033 504.9763 L470.1217 512.9258 Z" clip-path="url(#clipPath2)" stroke="none"/>
      <path fill="none" d="M522.6716 480.7137 L501.4363 509.8603" clip-path="url(#clipPath2)"/>
      <path d="M494.1492 519.8622 L507.5544 512.9258 L496.6432 504.9763 Z" clip-path="url(#clipPath2)" stroke="none"/>
      <path fill="none" d="M693.381 561.133 L693.2824 561.15 L681.0583 562.5269 L659.8178 563.652 L638.548 563.5133 L617.2488 562.1106 L595.9203 559.444 L574.5626 555.5135 L553.1754 550.319 L531.759 543.8606 L510.3132 536.1382 L502.8892 533.0317" stroke-width="4" clip-path="url(#clipPath2)" stroke="rgb(255,153,0)"/>
      <path fill="rgb(255,153,0)" d="M708.3673 559.0897 L690.904 553.1444 L693.1331 569.4932 Z" stroke-width="4" clip-path="url(#clipPath2)" stroke="none"/>
      <text x="621.8672" font-size="16px" y="583.8704" clip-path="url(#clipPath2)" font-family="sans-serif" stroke="none" stroke-width="1" xml:space="preserve">Generate </text>
      <text x="621.918" font-size="16px" y="602.7142" clip-path="url(#clipPath2)" font-family="sans-serif" stroke="none" stroke-width="1" xml:space="preserve">operation</text>
      <path fill="none" d="M599.1716 480.7137 L577.9363 509.8603" clip-path="url(#clipPath2)"/>
      <path d="M570.6492 519.8622 L584.0543 512.9258 L573.1431 504.9763 Z" clip-path="url(#clipPath2)" stroke="none"/>
      <path fill="none" d="M531.5045 480.7137 L552.7398 509.8603" clip-path="url(#clipPath2)"/>
      <path d="M560.0269 519.8622 L557.533 504.9763 L546.6218 512.9258 Z" clip-path="url(#clipPath2)" stroke="none"/>
      <path fill="none" d="M494.1974 534.4379 L514.3961 561.8975" clip-path="url(#clipPath2)"/>
      <path d="M521.7287 571.8661 L519.1669 556.9916 L508.292 564.9909 Z" clip-path="url(#clipPath2)" stroke="none"/>
      <path fill="none" d="M559.9787 534.4379 L539.78 561.8975" clip-path="url(#clipPath2)"/>
      <path d="M532.4474 571.8661 L545.884 564.9909 L535.0092 556.9916 Z" clip-path="url(#clipPath2)" stroke="none"/>
      <path fill="none" d="M1058.6694 480.2314 L1079.9048 509.3779" clip-path="url(#clipPath2)"/>
      <path d="M1087.1919 519.3798 L1084.6979 504.4938 L1073.7867 512.4434 Z" clip-path="url(#clipPath2)" stroke="none"/>
      <path fill="none" d="M1126.3365 480.2314 L1105.1013 509.3779" clip-path="url(#clipPath2)"/>
      <path d="M1097.8142 519.3798 L1111.2194 512.4434 L1100.3082 504.4938 Z" clip-path="url(#clipPath2)" stroke="none"/>
      <path fill="none" d="M949.5782 565.0647 L959.5092 565.7476 L976.0018 565.5422 L992.5321 563.9999 L1009.1 561.1205 L1025.7054 556.9043 L1042.3485 551.3511 L1059.0291 544.4609 L1067.7489 540.1697 L1067.8357 540.1202" stroke-width="4" clip-path="url(#clipPath2)" stroke="rgb(255,153,0)"/>
      <path fill="rgb(255,153,0)" d="M1081.2356 533.1052 L1062.7913 533.4489 L1070.4438 548.0669 Z" stroke-width="4" clip-path="url(#clipPath2)" stroke="none"/>
      <text x="998.5301" font-size="16px" y="584.962" clip-path="url(#clipPath2)" font-family="sans-serif" stroke="none" stroke-width="1" xml:space="preserve">Add operation</text>
      <text x="1020.8152" font-size="16px" y="603.8058" clip-path="url(#clipPath2)" font-family="sans-serif" stroke="none" stroke-width="1" xml:space="preserve">to graph</text>
      <path fill="none" d="M1202.8365 480.2314 L1181.6013 509.3779" clip-path="url(#clipPath2)"/>
      <path d="M1174.3142 519.3798 L1187.7194 512.4434 L1176.8082 504.4938 Z" clip-path="url(#clipPath2)" stroke="none"/>
      <path fill="none" d="M1135.1694 480.2314 L1156.4048 509.3779" clip-path="url(#clipPath2)"/>
      <path d="M1163.6919 519.3798 L1161.1979 504.4938 L1150.2867 512.4434 Z" clip-path="url(#clipPath2)" stroke="none"/>
    </g>
  </g>
</svg>
