<?xml version="1.0" encoding="UTF-8"?><svg xmlns="http://www.w3.org/2000/svg" xmlns:xlink="http://www.w3.org/1999/xlink" fill-opacity="1" color-rendering="auto" color-interpolation="auto" text-rendering="auto" stroke="black" stroke-linecap="square" width="828" stroke-miterlimit="10" shape-rendering="auto" stroke-opacity="1" fill="black" stroke-dasharray="none" font-weight="normal" stroke-width="1" height="284" font-family="'Dialog'" font-style="normal" stroke-linejoin="miter" font-size="12px" stroke-dashoffset="0" image-rendering="auto">
  <!--Generated by ySVG 2.5-->
  <defs id="genericDefs"/>
  <g>
    <defs id="defs1">
      <clipPath clipPathUnits="userSpaceOnUse" id="clipPath1">
        <path d="M0 0 L828 0 L828 284 L0 284 L0 0 Z"/>
      </clipPath>
      <clipPath clipPathUnits="userSpaceOnUse" id="clipPath2">
        <path d="M415 703 L1243 703 L1243 987 L415 987 L415 703 Z"/>
      </clipPath>
    </defs>
    <g fill="white" text-rendering="geometricPrecision" shape-rendering="geometricPrecision" transform="translate(-415,-703)" stroke="white">
      <rect x="415" width="828" height="284" y="703" clip-path="url(#clipPath2)" stroke="none"/>
    </g>
    <g fill="white" text-rendering="geometricPrecision" shape-rendering="geometricPrecision" transform="matrix(1,0,0,1,-415,-703)" stroke="white">
      <circle r="7.5" clip-path="url(#clipPath2)" cx="450.588" cy="865.7433" stroke="none"/>
    </g>
    <g text-rendering="geometricPrecision" stroke-miterlimit="1.45" stroke-width="2" shape-rendering="geometricPrecision" transform="matrix(1,0,0,1,-415,-703)" stroke-linecap="butt">
      <circle fill="none" r="7.5" clip-path="url(#clipPath2)" cx="450.588" cy="865.7433"/>
      <text x="422.7052" font-size="16px" y="848.8683" clip-path="url(#clipPath2)" font-family="sans-serif" stroke="none" stroke-width="1" xml:space="preserve">value 1</text>
    </g>
    <g fill="white" text-rendering="geometricPrecision" shape-rendering="geometricPrecision" transform="matrix(1,0,0,1,-415,-703)" stroke="white">
      <circle r="7.5" clip-path="url(#clipPath2)" cx="527.088" cy="865.7433" stroke="none"/>
    </g>
    <g text-rendering="geometricPrecision" stroke-miterlimit="1.45" stroke-width="2" shape-rendering="geometricPrecision" transform="matrix(1,0,0,1,-415,-703)" stroke-linecap="butt">
      <circle fill="none" r="7.5" clip-path="url(#clipPath2)" cx="527.088" cy="865.7433"/>
      <text x="499.2052" font-size="16px" y="848.8683" clip-path="url(#clipPath2)" font-family="sans-serif" stroke="none" stroke-width="1" xml:space="preserve">value 2</text>
    </g>
    <g fill="white" text-rendering="geometricPrecision" shape-rendering="geometricPrecision" transform="matrix(1,0,0,1,-415,-703)" stroke="white">
      <circle r="7.5" clip-path="url(#clipPath2)" cx="603.588" cy="865.7433" stroke="none"/>
    </g>
    <g text-rendering="geometricPrecision" stroke-miterlimit="1.45" stroke-width="2" shape-rendering="geometricPrecision" transform="matrix(1,0,0,1,-415,-703)" stroke-linecap="butt">
      <circle fill="none" r="7.5" clip-path="url(#clipPath2)" cx="603.588" cy="865.7433"/>
      <text x="575.7052" font-size="16px" y="848.8683" clip-path="url(#clipPath2)" font-family="sans-serif" stroke="none" stroke-width="1" xml:space="preserve">value 3</text>
      <ellipse rx="22.5898" fill="none" ry="7.5" clip-path="url(#clipPath2)" cx="488.838" cy="918.2433"/>
      <text x="429.0685" font-size="16px" y="924.2902" clip-path="url(#clipPath2)" font-family="sans-serif" stroke="none" stroke-width="1" xml:space="preserve">Add</text>
      <ellipse rx="22.5898" fill="none" ry="7.5" clip-path="url(#clipPath2)" cx="565.338" cy="918.2433"/>
      <text x="593.9279" font-size="16px" y="924.2902" clip-path="url(#clipPath2)" font-family="sans-serif" stroke="none" stroke-width="1" xml:space="preserve">Mul</text>
      <ellipse clip-path="url(#clipPath2)" fill="none" rx="22.5898" cx="527.088" ry="7.5" cy="970.2433" stroke="rgb(255,153,0)"/>
      <text x="555.6779" font-size="16px" y="976.2902" clip-path="url(#clipPath2)" font-family="sans-serif" stroke="none" stroke-width="1" xml:space="preserve">Sub</text>
    </g>
    <g fill="white" text-rendering="geometricPrecision" shape-rendering="geometricPrecision" transform="matrix(1,0,0,1,-415,-703)" stroke="white">
      <circle r="7.5" clip-path="url(#clipPath2)" cx="1054.253" cy="853.2433" stroke="none"/>
    </g>
    <g text-rendering="geometricPrecision" stroke-miterlimit="1.45" stroke-width="2" shape-rendering="geometricPrecision" transform="matrix(1,0,0,1,-415,-703)" stroke-linecap="butt">
      <circle fill="none" r="7.5" clip-path="url(#clipPath2)" cx="1054.253" cy="853.2433"/>
      <text x="1026.3702" font-size="16px" y="836.3683" clip-path="url(#clipPath2)" font-family="sans-serif" stroke="none" stroke-width="1" xml:space="preserve">value 1</text>
    </g>
    <g fill="white" text-rendering="geometricPrecision" shape-rendering="geometricPrecision" transform="matrix(1,0,0,1,-415,-703)" stroke="white">
      <circle r="7.5" clip-path="url(#clipPath2)" cx="1130.753" cy="853.2433" stroke="none"/>
    </g>
    <g text-rendering="geometricPrecision" stroke-miterlimit="1.45" stroke-width="2" shape-rendering="geometricPrecision" transform="matrix(1,0,0,1,-415,-703)" stroke-linecap="butt">
      <circle fill="none" r="7.5" clip-path="url(#clipPath2)" cx="1130.753" cy="853.2433"/>
      <text x="1102.8702" font-size="16px" y="836.3683" clip-path="url(#clipPath2)" font-family="sans-serif" stroke="none" stroke-width="1" xml:space="preserve">value 2</text>
    </g>
    <g fill="white" text-rendering="geometricPrecision" shape-rendering="geometricPrecision" transform="matrix(1,0,0,1,-415,-703)" stroke="white">
      <circle r="7.5" clip-path="url(#clipPath2)" cx="1207.253" cy="853.2433" stroke="none"/>
    </g>
    <g text-rendering="geometricPrecision" stroke-miterlimit="1.45" stroke-width="2" shape-rendering="geometricPrecision" transform="matrix(1,0,0,1,-415,-703)" stroke-linecap="butt">
      <circle fill="none" r="7.5" clip-path="url(#clipPath2)" cx="1207.253" cy="853.2433"/>
      <text x="1179.3702" font-size="16px" y="836.3683" clip-path="url(#clipPath2)" font-family="sans-serif" stroke="none" stroke-width="1" xml:space="preserve">value 3</text>
      <ellipse rx="22.5898" fill="none" ry="7.5" clip-path="url(#clipPath2)" cx="1092.503" cy="905.7433"/>
      <text x="963.2335" font-size="16px" y="911.7902" clip-path="url(#clipPath2)" font-family="sans-serif" stroke="none" stroke-width="1" xml:space="preserve">injected_Add</text>
      <ellipse rx="22.5898" fill="none" ry="7.5" clip-path="url(#clipPath2)" cx="1169.003" cy="905.7433"/>
      <text x="1197.5929" font-size="16px" y="911.7902" clip-path="url(#clipPath2)" font-family="sans-serif" stroke="none" stroke-width="1" xml:space="preserve">Mul</text>
      <ellipse clip-path="url(#clipPath2)" fill="none" rx="22.5898" cx="1130.753" ry="7.5" cy="957.7433" stroke="rgb(255,153,0)"/>
      <text x="1159.3429" font-size="16px" y="963.7902" clip-path="url(#clipPath2)" font-family="sans-serif" stroke="none" stroke-width="1" xml:space="preserve">Sub</text>
    </g>
    <g font-size="16px" stroke-linecap="butt" transform="matrix(1,0,0,1,-415,-703)" text-rendering="geometricPrecision" font-family="sans-serif" shape-rendering="geometricPrecision" font-weight="bold" stroke-miterlimit="1.45">
      <text x="467.0177" xml:space="preserve" y="799.7902" clip-path="url(#clipPath2)" stroke="none">Original graph</text>
      <text x="1071.1984" xml:space="preserve" y="799.7902" clip-path="url(#clipPath2)" stroke="none">Injected graph</text>
      <text x="760.4235" xml:space="preserve" font-size="25px" y="734.4675" clip-path="url(#clipPath2)" stroke="none">Third step</text>
    </g>
    <g text-rendering="geometricPrecision" stroke-miterlimit="1.45" stroke-width="2" shape-rendering="geometricPrecision" transform="matrix(1,0,0,1,-415,-703)" stroke-linecap="butt">
      <path fill="none" d="M455.0045 871.8051 L476.2398 900.9516" clip-path="url(#clipPath2)"/>
      <path d="M483.5269 910.9536 L481.033 896.0676 L470.1217 904.0172 Z" clip-path="url(#clipPath2)" stroke="none"/>
      <path fill="none" d="M522.6716 871.8051 L501.4363 900.9516" clip-path="url(#clipPath2)"/>
      <path d="M494.1492 910.9536 L507.5544 904.0172 L496.6432 896.0676 Z" clip-path="url(#clipPath2)" stroke="none"/>
      <path fill="none" d="M599.1716 871.8051 L577.9363 900.9516" clip-path="url(#clipPath2)"/>
      <path d="M570.6492 910.9536 L584.0543 904.0172 L573.1431 896.0676 Z" clip-path="url(#clipPath2)" stroke="none"/>
      <path fill="none" d="M531.5045 871.8051 L552.7398 900.9516" clip-path="url(#clipPath2)"/>
      <path d="M560.0269 910.9536 L557.533 896.0676 L546.6218 904.0172 Z" clip-path="url(#clipPath2)" stroke="none"/>
      <path fill="none" d="M494.1974 925.5292 L514.3961 952.9888" clip-path="url(#clipPath2)"/>
      <path d="M521.7287 962.9575 L519.1669 948.083 L508.2921 956.0822 Z" clip-path="url(#clipPath2)" stroke="none"/>
      <path fill="none" d="M559.9787 925.5292 L539.78 952.9888" clip-path="url(#clipPath2)"/>
      <path d="M532.4474 962.9575 L545.884 956.0822 L535.0092 948.083 Z" clip-path="url(#clipPath2)" stroke="none"/>
      <path fill="none" d="M1058.6694 859.3051 L1079.9048 888.4516" clip-path="url(#clipPath2)"/>
      <path d="M1087.1919 898.4536 L1084.6979 883.5676 L1073.7867 891.5172 Z" clip-path="url(#clipPath2)" stroke="none"/>
      <path fill="none" d="M1126.3365 859.3051 L1105.1013 888.4516" clip-path="url(#clipPath2)"/>
      <path d="M1097.8142 898.4536 L1111.2194 891.5172 L1100.3082 883.5676 Z" clip-path="url(#clipPath2)" stroke="none"/>
      <path fill="none" d="M1202.8365 859.3051 L1181.6013 888.4516" clip-path="url(#clipPath2)"/>
      <path d="M1174.3142 898.4536 L1187.7194 891.5172 L1176.8082 883.5676 Z" clip-path="url(#clipPath2)" stroke="none"/>
      <path fill="none" d="M1135.1694 859.3051 L1156.4048 888.4516" clip-path="url(#clipPath2)"/>
      <path d="M1163.6919 898.4536 L1161.1979 883.5676 L1150.2867 891.5172 Z" clip-path="url(#clipPath2)" stroke="none"/>
      <path fill="none" d="M1097.8623 913.0292 L1118.061 940.4888" clip-path="url(#clipPath2)"/>
      <path d="M1125.3937 950.4575 L1122.8319 935.583 L1111.957 943.5822 Z" clip-path="url(#clipPath2)" stroke="none"/>
      <path fill="none" d="M1163.6437 913.0292 L1143.4451 940.4888" clip-path="url(#clipPath2)"/>
      <path d="M1136.1123 950.4574 L1149.5491 943.5823 L1138.6742 935.5829 Z" clip-path="url(#clipPath2)" stroke="none"/>
      <path fill="none" d="M544.2001 965.3288 L564.6101 959.4672 L602.1598 950.0237 L639.7371 941.9128 L677.342 935.1346 L714.9745 929.6891 L752.6345 925.5762 L790.3222 922.796 L828.0375 921.3484 L865.7803 921.2335 L903.5508 922.4512 L941.3489 925.0016 L979.1745 928.8846 L1017.0278 934.1003 L1054.9086 940.6487 L1092.817 948.5297 L1097.7911 949.7377" stroke-width="4" clip-path="url(#clipPath2)" stroke="rgb(255,153,0)"/>
      <path fill="rgb(255,153,0)" d="M1112.4889 953.3074 L1098.4021 941.3963 L1094.5079 957.4302 Z" stroke-width="4" clip-path="url(#clipPath2)" stroke="none"/>
      <text x="770.6353" font-size="16px" y="891.0952" clip-path="url(#clipPath2)" font-family="sans-serif" stroke="none" stroke-width="1" xml:space="preserve">Add operation</text>
      <text x="792.9205" font-size="16px" y="909.9389" clip-path="url(#clipPath2)" font-family="sans-serif" stroke="none" stroke-width="1" xml:space="preserve">to graph</text>
    </g>
  </g>
</svg>
