<?xml version="1.0" encoding="UTF-8"?><svg xmlns="http://www.w3.org/2000/svg" xmlns:xlink="http://www.w3.org/1999/xlink" fill-opacity="1" color-rendering="auto" color-interpolation="auto" text-rendering="auto" stroke="black" stroke-linecap="square" width="224" stroke-miterlimit="10" shape-rendering="auto" stroke-opacity="1" fill="black" stroke-dasharray="none" font-weight="normal" stroke-width="1" height="162" font-family="'Dialog'" font-style="normal" stroke-linejoin="miter" font-size="12px" stroke-dashoffset="0" image-rendering="auto">
  <!--Generated by ySVG 2.5-->
  <defs id="genericDefs"/>
  <g>
    <defs id="defs1">
      <clipPath clipPathUnits="userSpaceOnUse" id="clipPath1">
        <path d="M0 0 L224 0 L224 162 L0 162 L0 0 Z"/>
      </clipPath>
      <clipPath clipPathUnits="userSpaceOnUse" id="clipPath2">
        <path d="M463 131 L687 131 L687 293 L463 293 L463 131 Z"/>
      </clipPath>
    </defs>
    <g fill="white" text-rendering="geometricPrecision" shape-rendering="geometricPrecision" transform="translate(-463,-131)" stroke="white">
      <rect x="463" width="224" height="162" y="131" clip-path="url(#clipPath2)" stroke="none"/>
    </g>
    <g fill="white" text-rendering="geometricPrecision" shape-rendering="geometricPrecision" transform="matrix(1,0,0,1,-463,-131)" stroke="white">
      <circle r="7.5" clip-path="url(#clipPath2)" cx="498.6761" cy="171.2358" stroke="none"/>
    </g>
    <g text-rendering="geometricPrecision" stroke-miterlimit="1.45" stroke-width="2" shape-rendering="geometricPrecision" transform="matrix(1,0,0,1,-463,-131)" stroke-linecap="butt">
      <circle fill="none" r="7.5" clip-path="url(#clipPath2)" cx="498.6761" cy="171.2358"/>
      <text x="470.7933" font-size="16px" y="154.3608" clip-path="url(#clipPath2)" font-family="sans-serif" stroke="none" stroke-width="1" xml:space="preserve">value 1</text>
    </g>
    <g fill="white" text-rendering="geometricPrecision" shape-rendering="geometricPrecision" transform="matrix(1,0,0,1,-463,-131)" stroke="white">
      <circle r="7.5" clip-path="url(#clipPath2)" cx="575.1761" cy="171.2358" stroke="none"/>
    </g>
    <g text-rendering="geometricPrecision" stroke-miterlimit="1.45" stroke-width="2" shape-rendering="geometricPrecision" transform="matrix(1,0,0,1,-463,-131)" stroke-linecap="butt">
      <circle fill="none" r="7.5" clip-path="url(#clipPath2)" cx="575.1761" cy="171.2358"/>
      <text x="547.2933" font-size="16px" y="154.3608" clip-path="url(#clipPath2)" font-family="sans-serif" stroke="none" stroke-width="1" xml:space="preserve">value 2</text>
    </g>
    <g fill="white" text-rendering="geometricPrecision" shape-rendering="geometricPrecision" transform="matrix(1,0,0,1,-463,-131)" stroke="white">
      <circle r="7.5" clip-path="url(#clipPath2)" cx="651.6761" cy="171.2358" stroke="none"/>
    </g>
    <g text-rendering="geometricPrecision" stroke-miterlimit="1.45" stroke-width="2" shape-rendering="geometricPrecision" transform="matrix(1,0,0,1,-463,-131)" stroke-linecap="butt">
      <circle fill="none" r="7.5" clip-path="url(#clipPath2)" cx="651.6761" cy="171.2358"/>
      <text x="623.7933" font-size="16px" y="154.3608" clip-path="url(#clipPath2)" font-family="sans-serif" stroke="none" stroke-width="1" xml:space="preserve">value 3</text>
      <ellipse rx="22.5898" fill="none" ry="7.5" clip-path="url(#clipPath2)" cx="536.9261" cy="223.7358"/>
      <text x="477.1566" font-size="16px" y="229.7827" clip-path="url(#clipPath2)" font-family="sans-serif" stroke="none" stroke-width="1" xml:space="preserve">Add</text>
      <ellipse rx="22.5898" fill="none" ry="7.5" clip-path="url(#clipPath2)" cx="613.4261" cy="223.7358"/>
      <text x="642.0159" font-size="16px" y="229.7827" clip-path="url(#clipPath2)" font-family="sans-serif" stroke="none" stroke-width="1" xml:space="preserve">Mul</text>
      <ellipse rx="22.5898" fill="none" ry="7.5" clip-path="url(#clipPath2)" cx="575.1761" cy="275.7358"/>
      <text x="603.7659" font-size="16px" y="281.7827" clip-path="url(#clipPath2)" font-family="sans-serif" stroke="none" stroke-width="1" xml:space="preserve">Sub</text>
      <path fill="none" d="M503.0925 177.2976 L524.3278 206.4441" clip-path="url(#clipPath2)"/>
      <path d="M531.6149 216.446 L529.121 201.56 L518.2098 209.5096 Z" clip-path="url(#clipPath2)" stroke="none"/>
      <path fill="none" d="M570.7596 177.2976 L549.5243 206.4441" clip-path="url(#clipPath2)"/>
      <path d="M542.2372 216.446 L555.6423 209.5096 L544.7311 201.56 Z" clip-path="url(#clipPath2)" stroke="none"/>
      <path fill="none" d="M647.2596 177.2976 L626.0243 206.4441" clip-path="url(#clipPath2)"/>
      <path d="M618.7372 216.446 L632.1423 209.5096 L621.2311 201.56 Z" clip-path="url(#clipPath2)" stroke="none"/>
      <path fill="none" d="M579.5925 177.2976 L600.8278 206.4441" clip-path="url(#clipPath2)"/>
      <path d="M608.1149 216.446 L605.621 201.56 L594.7098 209.5096 Z" clip-path="url(#clipPath2)" stroke="none"/>
      <path fill="none" d="M542.2854 231.0217 L562.4841 258.4814" clip-path="url(#clipPath2)"/>
      <path d="M569.8168 268.4499 L567.2549 253.5755 L556.3801 261.5748 Z" clip-path="url(#clipPath2)" stroke="none"/>
      <path fill="none" d="M608.0668 231.0217 L587.868 258.4814" clip-path="url(#clipPath2)"/>
      <path d="M580.5354 268.45 L593.972 261.5748 L583.0972 253.5755 Z" clip-path="url(#clipPath2)" stroke="none"/>
    </g>
  </g>
</svg>
